<?xml version="1.0" encoding="UTF-8"?>
<svg xmlns="http://www.w3.org/2000/svg" xmlns:xlink="http://www.w3.org/1999/xlink" width="11px" height="11px" viewBox="0 0 11 11" version="1.1">
<g id="surface1">
<path style=" stroke:none;fill-rule:nonzero;fill:rgb(0%,0%,0%);fill-opacity:1;" d="M 8.695312 6.8125 C 8.46875 6.578125 8.195312 6.453125 7.910156 6.453125 C 7.625 6.453125 7.347656 6.578125 7.113281 6.8125 L 6.382812 7.542969 C 6.320312 7.511719 6.261719 7.480469 6.203125 7.449219 C 6.117188 7.410156 6.039062 7.367188 5.972656 7.328125 C 5.285156 6.890625 4.660156 6.320312 4.0625 5.585938 C 3.773438 5.21875 3.578125 4.910156 3.433594 4.597656 C 3.625 4.421875 3.800781 4.242188 3.972656 4.066406 C 4.039062 4.003906 4.105469 3.933594 4.167969 3.871094 C 4.65625 3.382812 4.65625 2.75 4.167969 2.265625 L 3.535156 1.628906 C 3.460938 1.558594 3.386719 1.484375 3.320312 1.410156 C 3.179688 1.265625 3.035156 1.117188 2.882812 0.976562 C 2.65625 0.753906 2.386719 0.636719 2.105469 0.636719 C 1.820312 0.636719 1.546875 0.753906 1.316406 0.976562 C 1.3125 0.980469 1.3125 0.980469 1.3125 0.980469 L 0.519531 1.777344 C 0.222656 2.074219 0.0546875 2.4375 0.015625 2.859375 C -0.0390625 3.535156 0.160156 4.167969 0.316406 4.582031 C 0.691406 5.59375 1.253906 6.535156 2.089844 7.542969 C 3.109375 8.757812 4.332031 9.714844 5.730469 10.390625 C 6.261719 10.644531 6.976562 10.945312 7.773438 10.996094 C 7.820312 10.996094 7.871094 11 7.917969 11 C 8.453125 11 8.90625 10.808594 9.257812 10.425781 C 9.261719 10.417969 9.265625 10.417969 9.265625 10.414062 C 9.386719 10.265625 9.527344 10.132812 9.671875 9.992188 C 9.773438 9.898438 9.875 9.796875 9.976562 9.691406 C 10.203125 9.453125 10.324219 9.175781 10.324219 8.890625 C 10.324219 8.601562 10.203125 8.324219 9.96875 8.09375 Z M 9.523438 9.257812 C 9.523438 9.257812 9.523438 9.261719 9.523438 9.257812 C 9.433594 9.355469 9.339844 9.445312 9.242188 9.542969 C 9.089844 9.6875 8.9375 9.835938 8.792969 10.007812 C 8.558594 10.257812 8.28125 10.375 7.921875 10.375 C 7.886719 10.375 7.847656 10.375 7.8125 10.375 C 7.125 10.328125 6.484375 10.058594 6.003906 9.828125 C 4.6875 9.195312 3.535156 8.289062 2.574219 7.144531 C 1.785156 6.191406 1.253906 5.308594 0.90625 4.363281 C 0.6875 3.785156 0.609375 3.335938 0.644531 2.910156 C 0.667969 2.636719 0.773438 2.414062 0.964844 2.21875 L 1.757812 1.429688 C 1.871094 1.320312 1.992188 1.261719 2.109375 1.261719 C 2.253906 1.261719 2.375 1.351562 2.449219 1.425781 C 2.449219 1.429688 2.453125 1.429688 2.457031 1.433594 C 2.597656 1.566406 2.730469 1.703125 2.875 1.847656 C 2.945312 1.921875 3.019531 1.996094 3.09375 2.074219 L 3.726562 2.707031 C 3.972656 2.953125 3.972656 3.179688 3.726562 3.425781 C 3.660156 3.496094 3.59375 3.5625 3.527344 3.625 C 3.332031 3.828125 3.148438 4.011719 2.945312 4.191406 C 2.941406 4.199219 2.9375 4.199219 2.933594 4.203125 C 2.734375 4.402344 2.769531 4.597656 2.8125 4.730469 C 2.816406 4.738281 2.816406 4.746094 2.820312 4.753906 C 2.984375 5.152344 3.214844 5.527344 3.570312 5.976562 C 4.210938 6.769531 4.886719 7.382812 5.632812 7.855469 C 5.730469 7.914062 5.828125 7.964844 5.917969 8.007812 C 6.003906 8.050781 6.082031 8.089844 6.148438 8.132812 C 6.160156 8.136719 6.167969 8.144531 6.175781 8.148438 C 6.253906 8.1875 6.328125 8.207031 6.40625 8.207031 C 6.597656 8.207031 6.71875 8.085938 6.757812 8.046875 L 7.554688 7.253906 C 7.632812 7.175781 7.757812 7.078125 7.902344 7.078125 C 8.046875 7.078125 8.167969 7.167969 8.238281 7.25 C 8.242188 7.25 8.242188 7.25 8.242188 7.253906 L 9.523438 8.53125 C 9.761719 8.769531 9.761719 9.011719 9.523438 9.257812 Z M 9.523438 9.257812 "/>
<path style=" stroke:none;fill-rule:nonzero;fill:rgb(0%,0%,0%);fill-opacity:1;" d="M 5.945312 2.617188 C 6.554688 2.71875 7.105469 3.007812 7.546875 3.449219 C 7.988281 3.890625 8.273438 4.441406 8.378906 5.050781 C 8.402344 5.203125 8.535156 5.308594 8.6875 5.308594 C 8.703125 5.308594 8.722656 5.308594 8.738281 5.304688 C 8.910156 5.277344 9.027344 5.113281 8.996094 4.941406 C 8.871094 4.207031 8.523438 3.535156 7.992188 3.003906 C 7.460938 2.472656 6.789062 2.125 6.054688 2 C 5.882812 1.972656 5.722656 2.085938 5.691406 2.253906 C 5.660156 2.425781 5.773438 2.589844 5.945312 2.617188 Z M 5.945312 2.617188 "/>
<path style=" stroke:none;fill-rule:nonzero;fill:rgb(0%,0%,0%);fill-opacity:1;" d="M 10.988281 4.851562 C 10.78125 3.640625 10.210938 2.539062 9.332031 1.660156 C 8.453125 0.78125 7.351562 0.210938 6.140625 0.00390625 C 5.96875 -0.0273438 5.808594 0.0898438 5.78125 0.261719 C 5.753906 0.433594 5.867188 0.59375 6.039062 0.621094 C 7.121094 0.804688 8.105469 1.320312 8.890625 2.101562 C 9.675781 2.886719 10.1875 3.871094 10.371094 4.953125 C 10.394531 5.109375 10.527344 5.214844 10.679688 5.214844 C 10.695312 5.214844 10.714844 5.210938 10.730469 5.210938 C 10.902344 5.183594 11.015625 5.023438 10.988281 4.851562 Z M 10.988281 4.851562 "/>
</g>
</svg>
