<?xml version="1.0" encoding="UTF-8"?>
<svg xmlns="http://www.w3.org/2000/svg" xmlns:xlink="http://www.w3.org/1999/xlink" width="11px" height="11px" viewBox="0 0 11 11" version="1.1">
<g id="surface1">
<path style=" stroke:none;fill-rule:nonzero;fill:rgb(0%,0%,0%);fill-opacity:1;" d="M 10.828125 5.5 C 10.828125 2.554688 8.445312 0.171875 5.5 0.171875 C 2.554688 0.171875 0.171875 2.554688 0.171875 5.5 C 0.171875 8.160156 2.121094 10.363281 4.667969 10.765625 L 4.667969 7.039062 L 3.3125 7.039062 L 3.3125 5.5 L 4.667969 5.5 L 4.667969 4.324219 C 4.667969 2.992188 5.460938 2.253906 6.679688 2.253906 C 7.261719 2.253906 7.871094 2.355469 7.871094 2.355469 L 7.871094 3.667969 L 7.199219 3.667969 C 6.539062 3.667969 6.332031 4.078125 6.332031 4.5 L 6.332031 5.5 L 7.808594 5.5 L 7.574219 7.039062 L 6.332031 7.039062 L 6.332031 10.765625 C 8.878906 10.363281 10.828125 8.160156 10.828125 5.5 Z M 10.828125 5.5 "/>
</g>
</svg>
