<?xml version="1.0" encoding="UTF-8"?>
<svg xmlns="http://www.w3.org/2000/svg" xmlns:xlink="http://www.w3.org/1999/xlink" width="10px" height="10px" viewBox="0 0 10 10" version="1.1">
<g id="surface1">
<path style=" stroke:none;fill-rule:nonzero;fill:rgb(0%,0%,0%);fill-opacity:1;" d="M 9.628906 1.425781 L 0.371094 1.425781 C 0.167969 1.425781 0 1.59375 0 1.796875 L 0 8.203125 C 0 8.40625 0.167969 8.574219 0.371094 8.574219 L 9.628906 8.574219 C 9.832031 8.574219 10 8.40625 10 8.203125 L 10 1.796875 C 10 1.59375 9.832031 1.425781 9.628906 1.425781 Z M 9.292969 7.660156 C 9.292969 7.832031 9.152344 7.96875 8.976562 7.96875 L 8.457031 7.96875 L 8.457031 3.085938 L 5.234375 5.179688 C 5.164062 5.226562 5.082031 5.246094 5 5.246094 C 4.917969 5.246094 4.835938 5.226562 4.765625 5.179688 L 1.542969 3.085938 L 1.542969 7.96875 L 1.023438 7.96875 C 0.847656 7.96875 0.707031 7.832031 0.707031 7.660156 L 0.707031 2.339844 C 0.707031 2.167969 0.847656 2.03125 1.023438 2.03125 L 1.449219 2.03125 L 5 4.335938 L 8.550781 2.03125 L 8.976562 2.03125 C 9.152344 2.03125 9.292969 2.167969 9.292969 2.339844 Z M 9.292969 7.660156 "/>
</g>
</svg>
