<?xml version="1.0" encoding="UTF-8"?>
<svg xmlns="http://www.w3.org/2000/svg" xmlns:xlink="http://www.w3.org/1999/xlink" width="11px" height="13px" viewBox="0 0 11 12" version="1.1">
<g id="surface1">
<path style=" stroke:none;fill-rule:nonzero;fill:rgb(0%,0%,0%);fill-opacity:1;" d="M 5.503906 3.304688 C 3.941406 3.304688 2.679688 4.507812 2.679688 5.996094 C 2.679688 7.488281 3.941406 8.691406 5.503906 8.691406 C 7.0625 8.691406 8.324219 7.488281 8.324219 5.996094 C 8.324219 4.507812 7.0625 3.304688 5.503906 3.304688 Z M 5.503906 7.75 C 4.492188 7.75 3.667969 6.964844 3.667969 5.996094 C 3.667969 5.03125 4.492188 4.246094 5.503906 4.246094 C 6.515625 4.246094 7.335938 5.03125 7.335938 5.996094 C 7.335938 6.964844 6.511719 7.75 5.503906 7.75 Z M 9.097656 3.195312 C 9.097656 3.542969 8.800781 3.824219 8.4375 3.824219 C 8.074219 3.824219 7.78125 3.542969 7.78125 3.195312 C 7.78125 2.847656 8.074219 2.566406 8.4375 2.566406 C 8.800781 2.566406 9.097656 2.847656 9.097656 3.195312 Z M 10.964844 3.832031 C 10.925781 2.992188 10.722656 2.246094 10.078125 1.632812 C 9.433594 1.015625 8.652344 0.824219 7.769531 0.78125 C 6.863281 0.734375 4.140625 0.734375 3.230469 0.78125 C 2.351562 0.824219 1.570312 1.015625 0.925781 1.628906 C 0.28125 2.242188 0.0820312 2.988281 0.0351562 3.828125 C -0.015625 4.695312 -0.015625 7.296875 0.0351562 8.164062 C 0.078125 9.003906 0.28125 9.75 0.925781 10.363281 C 1.570312 10.976562 2.351562 11.171875 3.230469 11.210938 C 4.140625 11.261719 6.863281 11.261719 7.769531 11.210938 C 8.652344 11.171875 9.433594 10.980469 10.078125 10.363281 C 10.71875 9.75 10.921875 9.003906 10.964844 8.164062 C 11.015625 7.296875 11.015625 4.699219 10.964844 3.832031 Z M 9.792969 9.09375 C 9.601562 9.554688 9.230469 9.90625 8.746094 10.09375 C 8.023438 10.367188 6.304688 10.304688 5.503906 10.304688 C 4.703125 10.304688 2.980469 10.363281 2.257812 10.09375 C 1.777344 9.910156 1.40625 9.554688 1.214844 9.09375 C 0.925781 8.402344 0.992188 6.761719 0.992188 5.996094 C 0.992188 5.234375 0.929688 3.589844 1.214844 2.902344 C 1.40625 2.441406 1.773438 2.089844 2.257812 1.902344 C 2.984375 1.628906 4.703125 1.691406 5.503906 1.691406 C 6.304688 1.691406 8.023438 1.632812 8.746094 1.902344 C 9.226562 2.085938 9.597656 2.441406 9.792969 2.902344 C 10.078125 3.59375 10.011719 5.234375 10.011719 5.996094 C 10.011719 6.761719 10.078125 8.40625 9.792969 9.09375 Z M 9.792969 9.09375 "/>
</g>
</svg>
